<mxfile host="Electron" agent="Mozilla/5.0 (Windows NT 10.0; Win64; x64) AppleWebKit/537.36 (KHTML, like Gecko) draw.io/27.0.5 Chrome/134.0.6998.205 Electron/35.3.0 Safari/537.36" version="27.0.5">
  <diagram name="第 1 页" id="6LFTcnIBUGLzdqr5jMxb">
    <mxGraphModel dx="1173" dy="683" grid="1" gridSize="10" guides="1" tooltips="1" connect="1" arrows="1" fold="1" page="1" pageScale="1" pageWidth="827" pageHeight="1169" math="0" shadow="0">
      <root>
        <mxCell id="0" />
        <mxCell id="1" parent="0" />
        <mxCell id="ROnsR4GOjlWsxa634uoc-10" value="" style="rounded=0;whiteSpace=wrap;html=1;fillColor=#dae8fc;strokeColor=#6c8ebf;" parent="1" vertex="1">
          <mxGeometry x="80" y="200" width="640" height="80" as="geometry" />
        </mxCell>
        <mxCell id="ROnsR4GOjlWsxa634uoc-9" style="rounded=0;orthogonalLoop=1;jettySize=auto;html=1;exitX=1;exitY=1;exitDx=0;exitDy=0;entryX=0;entryY=0;entryDx=0;entryDy=0;" parent="1" source="ROnsR4GOjlWsxa634uoc-1" target="ROnsR4GOjlWsxa634uoc-7" edge="1">
          <mxGeometry relative="1" as="geometry" />
        </mxCell>
        <mxCell id="ROnsR4GOjlWsxa634uoc-1" value="starting" style="rounded=0;whiteSpace=wrap;html=1;fillColor=#6666FF;fontColor=#FFFFFF;" parent="1" vertex="1">
          <mxGeometry x="200" y="220" width="80" height="20" as="geometry" />
        </mxCell>
        <mxCell id="ROnsR4GOjlWsxa634uoc-2" value="&lt;b&gt;SpringBoot 生命周期监听-九大事件&lt;/b&gt;" style="text;html=1;align=center;verticalAlign=middle;whiteSpace=wrap;rounded=0;fontSize=20;" parent="1" vertex="1">
          <mxGeometry x="220" y="120" width="360" height="40" as="geometry" />
        </mxCell>
        <mxCell id="ROnsR4GOjlWsxa634uoc-5" value="启动" style="rounded=0;whiteSpace=wrap;html=1;" parent="1" vertex="1">
          <mxGeometry x="200" y="240" width="80" height="20" as="geometry" />
        </mxCell>
        <mxCell id="ROnsR4GOjlWsxa634uoc-6" value="environmentPrepared" style="rounded=0;whiteSpace=wrap;html=1;fillColor=#6666FF;fontColor=#FFFFFF;" parent="1" vertex="1">
          <mxGeometry x="440" y="220" width="160" height="20" as="geometry" />
        </mxCell>
        <mxCell id="ROnsR4GOjlWsxa634uoc-42" style="edgeStyle=orthogonalEdgeStyle;rounded=0;orthogonalLoop=1;jettySize=auto;html=1;exitX=0.5;exitY=1;exitDx=0;exitDy=0;entryX=0.5;entryY=0;entryDx=0;entryDy=0;" parent="1" source="ROnsR4GOjlWsxa634uoc-7" target="ROnsR4GOjlWsxa634uoc-12" edge="1">
          <mxGeometry relative="1" as="geometry" />
        </mxCell>
        <mxCell id="ROnsR4GOjlWsxa634uoc-7" value="环境准备完成" style="rounded=0;whiteSpace=wrap;html=1;" parent="1" vertex="1">
          <mxGeometry x="440" y="240" width="160" height="20" as="geometry" />
        </mxCell>
        <mxCell id="ROnsR4GOjlWsxa634uoc-11" value="" style="rounded=0;whiteSpace=wrap;html=1;fillColor=#fff2cc;strokeColor=#d6b656;" parent="1" vertex="1">
          <mxGeometry x="80" y="320" width="640" height="120" as="geometry" />
        </mxCell>
        <mxCell id="ROnsR4GOjlWsxa634uoc-12" value="contextParepared" style="rounded=0;whiteSpace=wrap;html=1;fillColor=#6666FF;fontColor=#FFFFFF;" parent="1" vertex="1">
          <mxGeometry x="100" y="340" width="120" height="20" as="geometry" />
        </mxCell>
        <mxCell id="ROnsR4GOjlWsxa634uoc-27" style="edgeStyle=orthogonalEdgeStyle;rounded=0;orthogonalLoop=1;jettySize=auto;html=1;exitX=1;exitY=0.25;exitDx=0;exitDy=0;entryX=0;entryY=0.25;entryDx=0;entryDy=0;" parent="1" source="ROnsR4GOjlWsxa634uoc-13" target="ROnsR4GOjlWsxa634uoc-15" edge="1">
          <mxGeometry relative="1" as="geometry" />
        </mxCell>
        <mxCell id="ROnsR4GOjlWsxa634uoc-13" value="ioc创建，准备完成，&lt;div&gt;主程序未加载&lt;/div&gt;" style="rounded=0;whiteSpace=wrap;html=1;" parent="1" vertex="1">
          <mxGeometry x="100" y="360" width="120" height="60" as="geometry" />
        </mxCell>
        <mxCell id="ROnsR4GOjlWsxa634uoc-18" value="" style="group" parent="1" vertex="1" connectable="0">
          <mxGeometry x="260" y="340" width="120" height="80" as="geometry" />
        </mxCell>
        <mxCell id="ROnsR4GOjlWsxa634uoc-14" value="contextLoaded" style="rounded=0;whiteSpace=wrap;html=1;fillColor=#6666FF;fontColor=#FFFFFF;" parent="ROnsR4GOjlWsxa634uoc-18" vertex="1">
          <mxGeometry width="120" height="20" as="geometry" />
        </mxCell>
        <mxCell id="ROnsR4GOjlWsxa634uoc-15" value="ico加载，尚未刷新" style="rounded=0;whiteSpace=wrap;html=1;" parent="ROnsR4GOjlWsxa634uoc-18" vertex="1">
          <mxGeometry y="20" width="120" height="60" as="geometry" />
        </mxCell>
        <mxCell id="ROnsR4GOjlWsxa634uoc-20" value="" style="group" parent="1" vertex="1" connectable="0">
          <mxGeometry x="580" y="340" width="120" height="80" as="geometry" />
        </mxCell>
        <mxCell id="ROnsR4GOjlWsxa634uoc-21" value="ready" style="rounded=0;whiteSpace=wrap;html=1;fillColor=#6666FF;fontColor=#FFFFFF;" parent="ROnsR4GOjlWsxa634uoc-20" vertex="1">
          <mxGeometry width="120" height="20" as="geometry" />
        </mxCell>
        <mxCell id="ROnsR4GOjlWsxa634uoc-22" value="ioc刷新&lt;div&gt;runnder调用完成&lt;/div&gt;" style="rounded=0;whiteSpace=wrap;html=1;" parent="ROnsR4GOjlWsxa634uoc-20" vertex="1">
          <mxGeometry y="20" width="120" height="60" as="geometry" />
        </mxCell>
        <mxCell id="ROnsR4GOjlWsxa634uoc-28" style="edgeStyle=orthogonalEdgeStyle;rounded=0;orthogonalLoop=1;jettySize=auto;html=1;exitX=1;exitY=0.25;exitDx=0;exitDy=0;entryX=0;entryY=0.25;entryDx=0;entryDy=0;" parent="1" source="ROnsR4GOjlWsxa634uoc-15" target="ROnsR4GOjlWsxa634uoc-17" edge="1">
          <mxGeometry relative="1" as="geometry" />
        </mxCell>
        <mxCell id="ROnsR4GOjlWsxa634uoc-35" value="" style="group" parent="1" vertex="1" connectable="0">
          <mxGeometry x="420" y="340" width="120" height="80" as="geometry" />
        </mxCell>
        <mxCell id="ROnsR4GOjlWsxa634uoc-16" value="contextLoaded" style="rounded=0;whiteSpace=wrap;html=1;fillColor=#6666FF;fontColor=#FFFFFF;" parent="ROnsR4GOjlWsxa634uoc-35" vertex="1">
          <mxGeometry width="120" height="20" as="geometry" />
        </mxCell>
        <mxCell id="ROnsR4GOjlWsxa634uoc-17" value="ioc刷新&lt;div&gt;runner 未调用&lt;/div&gt;" style="rounded=0;whiteSpace=wrap;html=1;" parent="ROnsR4GOjlWsxa634uoc-35" vertex="1">
          <mxGeometry y="20" width="120" height="60" as="geometry" />
        </mxCell>
        <mxCell id="ROnsR4GOjlWsxa634uoc-36" style="edgeStyle=orthogonalEdgeStyle;rounded=0;orthogonalLoop=1;jettySize=auto;html=1;exitX=1;exitY=0.25;exitDx=0;exitDy=0;entryX=0;entryY=0.25;entryDx=0;entryDy=0;" parent="1" source="ROnsR4GOjlWsxa634uoc-17" target="ROnsR4GOjlWsxa634uoc-22" edge="1">
          <mxGeometry relative="1" as="geometry" />
        </mxCell>
        <mxCell id="ROnsR4GOjlWsxa634uoc-37" value="&lt;font style=&quot;color: rgb(255, 255, 255); font-size: 15px;&quot;&gt;failed 启动失败，感知包含的 6 个过程的错误&lt;/font&gt;" style="rounded=0;whiteSpace=wrap;html=1;fillColor=#FF6666;strokeColor=#6c8ebf;" parent="1" vertex="1">
          <mxGeometry x="80" y="480" width="520" height="40" as="geometry" />
        </mxCell>
        <mxCell id="ROnsR4GOjlWsxa634uoc-38" value="" style="rounded=0;whiteSpace=wrap;html=1;fillColor=#d5e8d4;strokeColor=#82b366;" parent="1" vertex="1">
          <mxGeometry x="80" y="560" width="640" height="80" as="geometry" />
        </mxCell>
        <mxCell id="ROnsR4GOjlWsxa634uoc-39" value="&lt;font style=&quot;font-size: 16px;&quot;&gt;运行&lt;/font&gt;" style="rounded=0;whiteSpace=wrap;html=1;" parent="1" vertex="1">
          <mxGeometry x="320" y="560" width="120" height="40" as="geometry" />
        </mxCell>
        <mxCell id="ROnsR4GOjlWsxa634uoc-40" value="&lt;font style=&quot;font-size: 16px;&quot;&gt;context.isRunning() 运行中&lt;/font&gt;" style="rounded=0;whiteSpace=wrap;html=1;fillColor=#66FF66;" parent="1" vertex="1">
          <mxGeometry x="160" y="610" width="520" height="30" as="geometry" />
        </mxCell>
        <mxCell id="ROnsR4GOjlWsxa634uoc-46" style="edgeStyle=orthogonalEdgeStyle;rounded=0;orthogonalLoop=1;jettySize=auto;html=1;exitX=0.5;exitY=1;exitDx=0;exitDy=0;entryX=0.875;entryY=0.625;entryDx=0;entryDy=0;entryPerimeter=0;" parent="1" source="ROnsR4GOjlWsxa634uoc-22" target="ROnsR4GOjlWsxa634uoc-38" edge="1">
          <mxGeometry relative="1" as="geometry" />
        </mxCell>
        <mxCell id="6tTzTE1v745SB-lyXcdn-1" value="&lt;b&gt;BootstrapRegistryInitializer&lt;/b&gt;" style="text;html=1;align=left;verticalAlign=middle;whiteSpace=wrap;rounded=0;" vertex="1" parent="1">
          <mxGeometry x="80" y="170" width="200" height="30" as="geometry" />
        </mxCell>
        <mxCell id="6tTzTE1v745SB-lyXcdn-2" value="&lt;span&gt;ApplicationStartingEvent&lt;/span&gt;" style="text;html=1;align=center;verticalAlign=middle;whiteSpace=wrap;rounded=0;fontStyle=0;fillColor=#FFD966;strokeColor=#d6b656;" vertex="1" parent="1">
          <mxGeometry x="160" y="260" width="160" height="20" as="geometry" />
        </mxCell>
        <mxCell id="6tTzTE1v745SB-lyXcdn-3" value="&lt;span&gt;ApplicationEnviromentPreparedEvent&lt;/span&gt;" style="text;html=1;align=center;verticalAlign=middle;whiteSpace=wrap;rounded=0;fontStyle=0;fillColor=#FFD966;strokeColor=#d6b656;" vertex="1" parent="1">
          <mxGeometry x="480" y="200" width="220" height="20" as="geometry" />
        </mxCell>
        <mxCell id="6tTzTE1v745SB-lyXcdn-4" value="&lt;span&gt;ApplicationContextInitializedEvent&lt;/span&gt;" style="text;html=1;align=center;verticalAlign=middle;whiteSpace=wrap;rounded=0;fontStyle=0;fillColor=#FFD966;strokeColor=#d6b656;" vertex="1" parent="1">
          <mxGeometry x="50" y="320" width="200" height="20" as="geometry" />
        </mxCell>
        <mxCell id="6tTzTE1v745SB-lyXcdn-8" value="&lt;span&gt;AvailabilityChangeEvent&lt;/span&gt;&lt;div&gt;&lt;span&gt;就绪探针&lt;/span&gt;&lt;/div&gt;" style="text;html=1;align=center;verticalAlign=middle;whiteSpace=wrap;rounded=0;fontStyle=0;fillColor=#FFD966;strokeColor=#d6b656;" vertex="1" parent="1">
          <mxGeometry x="570" y="420" width="140" height="40" as="geometry" />
        </mxCell>
        <mxCell id="6tTzTE1v745SB-lyXcdn-5" value="&lt;span&gt;ApplicationPreparedEvent&lt;/span&gt;" style="text;html=1;align=center;verticalAlign=middle;whiteSpace=wrap;rounded=0;fontStyle=0;fillColor=#FFD966;strokeColor=#d6b656;" vertex="1" parent="1">
          <mxGeometry x="250" y="420" width="140" height="20" as="geometry" />
        </mxCell>
        <mxCell id="6tTzTE1v745SB-lyXcdn-6" value="&lt;span&gt;ApplicationStartedEvent&lt;/span&gt;" style="text;html=1;align=center;verticalAlign=middle;whiteSpace=wrap;rounded=0;fontStyle=0;fillColor=#FFD966;strokeColor=#d6b656;" vertex="1" parent="1">
          <mxGeometry x="414" y="320" width="140" height="20" as="geometry" />
        </mxCell>
        <mxCell id="6tTzTE1v745SB-lyXcdn-7" value="&lt;span&gt;AvailabilityChangeEvent&lt;/span&gt;&lt;div&gt;&lt;span&gt;存活探针&lt;/span&gt;&lt;/div&gt;" style="text;html=1;align=center;verticalAlign=middle;whiteSpace=wrap;rounded=0;fontStyle=0;fillColor=#FFD966;strokeColor=#d6b656;" vertex="1" parent="1">
          <mxGeometry x="414" y="420" width="140" height="40" as="geometry" />
        </mxCell>
        <mxCell id="6tTzTE1v745SB-lyXcdn-9" value="&lt;span&gt;ApplicationReadyEvent&lt;/span&gt;" style="text;html=1;align=center;verticalAlign=middle;whiteSpace=wrap;rounded=0;fontStyle=0;fillColor=#FFD966;strokeColor=#d6b656;" vertex="1" parent="1">
          <mxGeometry x="570" y="320" width="140" height="20" as="geometry" />
        </mxCell>
        <mxCell id="6tTzTE1v745SB-lyXcdn-10" value="&lt;span&gt;ApplicationFailedEvent&lt;/span&gt;" style="text;html=1;align=center;verticalAlign=middle;whiteSpace=wrap;rounded=0;fontStyle=0;fillColor=#FFD966;strokeColor=#d6b656;" vertex="1" parent="1">
          <mxGeometry x="480" y="520" width="140" height="20" as="geometry" />
        </mxCell>
      </root>
    </mxGraphModel>
  </diagram>
</mxfile>
